<svg xmlns="http://www.w3.org/2000/svg" viewBox="0 0 1496.68 1321.49"><defs><style>.cls-1{opacity:0.6;}.cls-2{fill:#acc9c5;}.cls-3{fill:#ccd39c;}.cls-4{fill:#c2c68e;}.cls-5{opacity:0.5;}.cls-6{fill:#68a1bf;}.cls-7{fill:#764678;}.cls-8{fill:#92bcb5;}.cls-9{fill:#ffb27d;}.cls-10{fill:#f59a6d;}.cls-11{fill:#366f90;}.cls-12{fill:#c1e9f8;}.cls-13{fill:#ef8062;}.cls-14{fill:#daebe8;}.cls-15{fill:#331832;}.cls-16{fill:#73b3ce;}.cls-17{fill:#92a5e6;}.cls-18{fill:#6da49a;}.cls-19{fill:#ea9967;}.cls-20{fill:#080435;}.cls-21{fill:#fff;}</style></defs><g id="圖層_2" data-name="圖層 2"><g id="_Layer_" data-name="&lt;Layer&gt;"><g class="cls-1"><path class="cls-2" d="M819.54,916.77s172.81-610.15,336.61-557S949.76,742.93,905.09,922.14Z"/></g><path class="cls-3" d="M780.61,902.87s497.82-571.28,682.19-421.43-437.24,304-575.72,475.2Z"/><path class="cls-4" d="M839.91,933.47c93.48-120,235.51-217.17,338.2-277.58,111.33-65.49,201.62-103,202.52-103.4l-2.32-5.61c-.9.37-91.59,38.07-203.28,103.78C1071.89,711.33,929.19,809,835.11,929.73Z"/><path class="cls-2" d="M1254,1245.79c-78.85-21.09-122.22,92.38-192.84,30.92-59.72-52-62.23-61.28-96-53.73A125.31,125.31,0,0,0,932,1235.67c-12.47,6.85-34.08,15.28-56.72,8.25C737,1201,659.86,924.27,845.35,888.85c13.39-2.56,28.78,1.71,45.43,7.21,90.26,29.88,96.6,81.61,213,16.94s133.26,122.43,191.86,146.24,116.61,32.37,129.78,114.18S1332.78,1266.92,1254,1245.79Z"/><g class="cls-5"><path class="cls-6" d="M815.66,1046.13l-.63-5.33c2.35-.28,239.4-25.77,611.79,154.65l-2.35,4.83C1053.49,1020.54,818,1045.86,815.66,1046.13Z"/><path class="cls-6" d="M1117.59,1021.64c-26.1-68.61-16.82-107.68-16.42-109.31l5.21,1.3c-.09.39-9.2,39.24,16.23,106.1Z"/><path class="cls-6" d="M1099.53,1077.47c-1.28-31,17.8-65,55.18-98.23a357.47,357.47,0,0,1,57.07-41l2.59,4.69c-1.12.62-112.44,63-109.47,134.37Z"/><path class="cls-6" d="M1200.64,1118.91c-3.29-7.8-4.8-12.54-4.87-12.76l5.13-1.58c.31,1,32.18,100.91,130.83,147.88l-2.31,4.85C1249.93,1219.45,1212.91,1148,1200.64,1118.91Z"/><path class="cls-6" d="M1191.64,1253.84c-9.46-36.12-3.09-64.09,3.92-81.19,7.63-18.61,17.45-28.55,17.86-29l3.8,3.79c-.38.38-37.71,38.86-20.39,105Z"/></g><path class="cls-2" d="M1258.1,418.15c15.59-12.34,25.05-9.92,31-2.39s6.15,17.29-9.44,29.63c-28.4,22.48-52.91,19.73-52.91,19.73S1229.29,441,1258.1,418.15Z"/><path class="cls-2" d="M1025.26,285.54c4.91-22.92,15.34-27.81,26.4-25.44s18.57,11.12,13.65,34c-9,41.75-33.31,57.63-33.31,57.63S1016.17,327.9,1025.26,285.54Z"/><path class="cls-2" d="M235.08,571.58c-11.71,12.63-19.52,12.78-24.86,8.33s-6.19-11.82,5.51-24.46c21.32-23,41.29-26.06,41.29-26.06S256.7,548.24,235.08,571.58Z"/><path class="cls-2" d="M363.66,951.9l-3.31.7c-.12-.48-13.15-49.11-54.86-113.5-38.49-59.41-110-144.78-232-214.05l1.7-2.75C197.88,692,269.76,777.82,308.46,837.59,350.41,902.39,363.53,951.41,363.66,951.9Z"/><path class="cls-2" d="M204.91,717.13l-3.3-.84c29.24-112.79-49.68-215.12-50.48-216.14l2.71-1.88C154.65,499.31,234.54,602.83,204.91,717.13Z"/><path class="cls-2" d="M138.59,682.05c-32.67,9.88-63,1.76-63.31,1.67l.88-3.09c.39.11,39.2,10.46,75.65-7.23l1.6,2.87A101.16,101.16,0,0,1,138.59,682.05Z"/><path class="cls-2" d="M65.21,608.61c22.28,9.48,26.66,17.22,23.9,23.28s-11.63,8.16-33.91-1.32C14.61,613.3,0,594,0,594S24,591.09,65.21,608.61Z"/><path class="cls-2" d="M80.34,671.2c24.11,2.75,30.73,8.92,30,15.54s-8.41,11.15-32.52,8.4c-43.92-5-63.91-19.4-63.91-19.4S35.78,666.12,80.34,671.2Z"/><path class="cls-2" d="M153.9,623.27c9.55,14.6,7.56,21.7,1.6,25.11s-13.64,1.83-23.19-12.76c-17.4-26.59-15-45.61-15-45.61S136.25,596.3,153.9,623.27Z"/><path class="cls-2" d="M156.15,483.81c13,19.62,12,28.24,6.09,31.68s-14.63.39-27.61-19.23C111,460.51,110.31,437,110.31,437S132.15,447.54,156.15,483.81Z"/><path class="cls-7" d="M1112.35,720.28c9,17.65,17.56,20.27,24.87,17s10.57-11.13,1.6-28.78c-16.33-32.16-37.46-41.83-37.46-41.83S1095.78,687.65,1112.35,720.28Z"/><path class="cls-7" d="M850.45,1100.45l3.43,1.81c.29-.49,30-50.18,96.4-108.27,61.27-53.59,167.2-125.51,323.94-163.73l-1-3.57c-157.6,38.43-264.13,110.78-325.73,164.7C880.68,1049.85,850.75,1100,850.45,1100.45Z"/><path class="cls-7" d="M1099.9,890.74l3.92.12c3.16-134,122.65-222.29,123.86-223.16l-2.41-2.94C1224.05,665.65,1103.1,755,1099.9,890.74Z"/><path class="cls-7" d="M1184.3,872.82c33,21.21,69.08,21.77,69.5,21.77V890.9c-.46,0-46.64-.76-81.39-31.81l-2.68,2.67A115.49,115.49,0,0,0,1184.3,872.82Z"/><path class="cls-7" d="M1288.57,814.69c-27.62,3.48-34.91,10.65-33.76,18.23s10.3,12.68,37.92,9.21c50.33-6.33,72.57-23.1,72.57-23.1S1339.63,808.27,1288.57,814.69Z"/><path class="cls-7" d="M1252.14,879.15c-27.53-4.54-36.79.2-38.12,7.73s5.79,15,33.32,19.53c50.15,8.28,76.79-1.34,76.79-1.34S1303,887.56,1252.14,879.15Z"/><path class="cls-7" d="M1185.86,803c-15.16,13.14-15.19,21.63-9.67,27.27s14.51,6.32,29.67-6.81c27.61-23.93,31-45.73,31-45.73S1213.87,778.72,1185.86,803Z"/><path class="cls-7" d="M1227.26,648c-20.53,17.61-22.19,27.45-16.7,33.13s16,5,36.59-12.59c37.41-32.09,45.55-57.87,45.55-57.87S1265.22,615.48,1227.26,648Z"/><path class="cls-2" d="M693.29,1052.67s-257.41-485-394.79-413.8S547.59,927.61,617.76,1071Z"/><path class="cls-8" d="M725.93,1081.09S302.84,574.85,145.84,711.75s371.78,267.14,489.46,419Z"/><path class="cls-3" d="M740.26,1246.58c-23.61-.26-48,.21-73,.64-34.77.59-70.44,1.33-103.26,2.14-30.79-17.17-28.43-29-54-47.2-26.68-19-33.05-12.59-109.3,5.65-90.15,21.53-78.19-85.06-157.68-98.7C162.45,1095.33,75.1,1045,122.77,985.78,170.93,926,226.33,941.56,289,945.23c35,2,80.45-40.86,128.64-63.46h0C454.58,864.67,492,861,524.76,903.14h0c61.7,78.1,88.32,67,152.68,66.32,22.51-.43,69.71,1.88,87.85,14C844.64,1036.31,819.92,1187.82,740.26,1246.58Z"/><path class="cls-4" d="M721.62,1119.53l2.94-4c-2-1.13-201.37-112.54-612.85-112.85l-.07,4.73C521.57,1007.74,719.67,1118.41,721.62,1119.53Z"/><path class="cls-4" d="M464.09,983.94c53.77-44.33,62.93-78.85,63.3-80.3l-5.21-1c-.09.34-9.31,34.64-61.71,77.84Z"/><path class="cls-4" d="M455.26,1035.14c15-24.1,13.15-58.36-5.28-99.08a301.9,301.9,0,0,0-32.45-54.49l-4.4,2.72c.72.93,71.9,93.19,37.46,148.61Z"/><path class="cls-4" d="M346.9,1029.08c6.41-4.92,9.86-8.1,10-8.24l-3.85-3.23c-.72.67-73.57,67.59-182.21,66.86l-.11,4.72C258.29,1089.78,323.05,1047.39,346.9,1029.08Z"/><path class="cls-4" d="M294.79,1139.47c24.51-25,31.3-49.6,32.69-65.85,1.51-17.69-2.79-29.34-3-29.83l-5.07,1.55c.17.45,16.21,45.31-28.66,91.05Z"/><path class="cls-2" d="M99.74,902.17c-17.82-.64-22.59-7.36-21.94-15.42s6.49-14.4,24.32-13.76c32.46,1.16,47,16.31,47,16.31S132.68,903.34,99.74,902.17Z"/><path class="cls-9" d="M574.61,305.83,453.17,215.21c-25.44-15.6-57-54.35-40.78-79.47h0c16.23-25.13,61-17.19,86.46-1.6l153,93.69C696.25,256,699.16,302.48,673,342.91,636.08,400,599.22,320.92,574.61,305.83Z"/><path class="cls-9" d="M1066.24,1002.73,665.81,1111.41s-30.64,5.3-52.57-46.65C597.1,1026.56,609,939.05,580,893.29c-11.73-18.66-25.1-8.82-52.57-56-52.59-89.77-27.74-243.46-27.74-243.46S857.1,400.21,862.39,343c4.71-52.13,69.06-78.49,84.67-57.4a17.4,17.4,0,0,1,3.08,7.57c2.16,13.18,7.65,41.2,15.38,74,10.94,46.4,26.34,102.33,43.11,139.08,47.05,103.2,41,134.31,12.09,214.5-20.8,57.49-3,101.37,5.3,138.81C1048.71,962.13,1066.24,1002.73,1066.24,1002.73Z"/><path class="cls-10" d="M775.61,876.22a3.8,3.8,0,0,1-3.33-1.29c-.76-.87-18.86-21.82-27.87-57.13a158.56,158.56,0,0,1-3-63.54c4.09-26.68,14.9-53.48,32.13-79.65a3.79,3.79,0,0,1,5.38-1.06,4.09,4.09,0,0,1,1,5.57c-16.57,25.19-27,50.89-30.88,76.4a150.18,150.18,0,0,0,2.85,60.23c8.52,33.44,25.94,53.6,26.12,53.8a4.12,4.12,0,0,1-.27,5.66A3.8,3.8,0,0,1,775.61,876.22Z"/><path class="cls-11" d="M936.48,723.93,927,617.09h0L897.73,288.54l-5.59-62.78-6.62-74.48a46.46,46.46,0,0,0-6-18.83l0,0c-11.68-19.66-36.52-24.73-54.43-22.61L814.93,111,725,121.94,617.6,135l-3.68.52-70.82,8.58L523,146.53c-1.06.12-2.1.3-3.13.5-21.08,4.24-35.74,24.62-33.2,47l2.55,28.8,1.44,15.45.47,5.25.75,8.63,2.35,26.28h0v.06l7.49,83h0l2.44,26.78v.1l1.85,20.33v0L507.18,421v1.17l2.55,28v0l4.6,51.31,2.36,26v.1l.3,3.06v.69l4.21,46.65v.13l.08.72h0l.06.61.21,2.26,1.78,19.45h0l2,23v0l.31,3.15v.09l14,156.59c2.66,23.4,24.88,37,47.59,34.3l153.09-23h.11l7.56-1.17h0L804,785.86l60.7-9.08,22.07-3.31,13.44-2a38.92,38.92,0,0,0,6.34-1.29,42,42,0,0,0,28-27.42A43.93,43.93,0,0,0,936.48,723.93Z"/><path class="cls-12" d="M826.42,120.61,524.1,157.31A31.17,31.17,0,0,0,497,191.78l55,563.42c4.07,38.52,23.91,34.62,40.8,32.57l303.66-45.69c16.89-2.06,28.72-23.82,26.8-40.81l-50.07-551.5c-1.93-17-29.93-31.21-46.82-29.16Z"/><path class="cls-9" d="M410.68,484.44,498,522.84c21.76,15.41,51.48,9.66,66.38-12.85h0c14.9-22.51,9.34-53.25-12.42-68.67l-56.4-40c-38.72-26.6-73.22-38.43-97.19-2.17C364.56,450.38,389.64,469.53,410.68,484.44Z"/><path class="cls-13" d="M1153.29,1321.49c-287.35-10.77-330.62-31-616.44-26.21,3.65-48.22,23.77-322.52,33.65-335.95,19.81-26.9,149,29.88,275-24.66,3.72-1.58,18-8.17,38.19-16.06,37.87-14.8,98.93-34.77,139.54-30.72h.1c14.33,1.43,28.08,6.08,31.32,19.18C1061.74,935,1116.66,1175.69,1153.29,1321.49Z"/><path class="cls-10" d="M533.54,507.15a4.65,4.65,0,0,1-1.06-.11c-1.31-.23-27.2-5.12-39-13.85-4.32-3.18-4.37-10.41-.16-20.35,6.06-14.26,19.54-30.34,28-30.34a4.87,4.87,0,0,1,1,.09c13.42,2.26,33.08,14.91,32.75,27.74-.27,10.61-8.92,28.79-16.51,34.72A8.4,8.4,0,0,1,533.54,507.15Zm-12.33-62.72c-7.48,0-20.33,15.55-26.11,29.18-3.77,8.89-3.94,15.45-.47,18,11.5,8.49,38,13.45,38.22,13.51h0c1.25.33,2.77-.25,4.5-1.62,7.11-5.56,15.51-23.26,15.77-33.24.3-11.66-18.68-23.67-31.13-25.78A4.43,4.43,0,0,0,521.21,444.43Z"/><path class="cls-9" d="M415.94,362.78l81.13,51a46.64,46.64,0,0,0,67.47-2.88h0c17.87-20.07,16.62-51.31-2.78-69.8l-50.28-47.9c-34.64-32.07-67.14-48.9-95.88-16.56C375,322.23,397.18,344.9,415.94,362.78Z"/><path class="cls-10" d="M535.18,403.53a5.35,5.35,0,0,1-1.84-.32c-1.27-.44-26.2-9.11-36.68-19.5-3.87-3.83-2.87-11.09,2.84-20.43,8.48-13.9,24.59-28,32.76-25.36,13,4.22,30.66,19.65,28.56,32.3-1.74,10.42-12.79,27.11-21.12,31.89A9.25,9.25,0,0,1,535.18,403.53Zm-5.19-64c-7.56,0-21.51,12.79-28.84,24.78-5.1,8.37-6.25,14.95-3.13,18,10.22,10.13,35.71,19,36,19.06h0c1.23.5,2.81.14,4.71-1,7.79-4.47,18.54-20.74,20.17-30.53,1.91-11.5-15.21-26.2-27.25-30.13A5.5,5.5,0,0,0,530,339.51Z"/><path class="cls-9" d="M451.45,605.82,529,625.15c20.12,9.66,44,.63,53.34-20.18h0c9.35-20.8.62-45.5-19.49-55.17l-52.14-25.06c-35.68-16.52-65.88-21.39-80.9,12.12C408.63,584.18,432,596.47,451.45,605.82Z"/><path class="cls-10" d="M555.69,607.27h-.18c-1.14,0-23.29-.36-34.28-5.93-4-2-5.09-7.94-3-16.64,3.18-13.45,12.93-29.73,20.27-29.76h.1c11.5,0,29.49,7.72,30.94,18.47,1.19,8.87-3.56,25.23-9.08,31.29C558.85,606.41,557.26,607.27,555.69,607.27Zm-17.13-50.38h-.09c-5.7,0-15.15,14.54-18.39,28.26-1.8,7.62-1.06,12.9,2,14.46,10.64,5.39,33.22,5.72,33.44,5.72h.13c1.25,0,2.48-1.07,3.3-2,5.13-5.61,9.71-21.44,8.59-29.71C566.28,564.06,549.12,556.89,538.56,556.89Z"/><path class="cls-10" d="M528.41,430.21c-33.27,0-91.57-50.11-94.19-52.37a3.06,3.06,0,0,1,4-4.63c.66.57,66.16,56.87,94.86,50.38a3.07,3.07,0,1,1,1.37,6A27.44,27.44,0,0,1,528.41,430.21Z"/><path class="cls-10" d="M523.45,535.05c-20.24,0-52.62-20.55-54.13-21.53a3.07,3.07,0,0,1-.93-4.23,3,3,0,0,1,4.23-.92c10.78,6.88,41.71,24,55.25,20a3.07,3.07,0,0,1,1.7,5.89A22.39,22.39,0,0,1,523.45,535.05Z"/><path class="cls-10" d="M958.66,368.54c-11.33,0-25.24-3.45-28.35-14.1-11-37.58,2.7-58.6,16.13-69.62l.79-.65.61.83a18.15,18.15,0,0,1,3.25,8c2.38,14.42,8,42.85,15.38,73.9l.24,1-1.06.15A51.83,51.83,0,0,1,958.66,368.54ZM946.86,287c-12.7,10.83-25.15,31.11-14.69,66.89,3.35,11.47,21,13.63,32.16,12.39-7.22-30.69-12.8-58.7-15.16-73A16.82,16.82,0,0,0,946.86,287Z"/><path class="cls-10" d="M618.28,900.3a5.3,5.3,0,0,1-.69,0c-34.3-2.19-55.09-14.9-66.5-25.18-12.57-11.32-16.85-22.21-17-22.66a4.06,4.06,0,0,1,2.17-5.21,3.82,3.82,0,0,1,5,2.23h0c0,.09,4,9.84,15.29,19.92,10.48,9.32,29.67,20.86,61.52,22.89a4,4,0,0,1,.22,8Z"/><path class="cls-10" d="M541.68,632.92h-.26c-20.38-.09-94.27-26.28-97.41-27.4a3.07,3.07,0,0,1,2.06-5.78c.76.27,76,27,95.38,27h.23c18.22,0,27.22-9,27.3-9.12a3.09,3.09,0,0,1,4.34-.07,3,3,0,0,1,.09,4.31C573,622.36,562.67,632.92,541.68,632.92Z"/><rect class="cls-13" x="713.52" width="412.24" height="224.02" rx="25.99"/><polygon class="cls-13" points="795.24 305.75 814.17 202.07 893.23 206.92 795.24 305.75"/><path class="cls-14" d="M1103.47,1085.31c-50.42.81-84.66,24-115.08,44.55-25.24,17.05-49.06,33.16-78.57,34.71-26.51,1.4-47.51-3.55-69.73-8.77-33.72-7.93-68.6-16.13-127.87-2.86-50.85,11.39-97,10.26-130.06,6.42-12.88-1.49-23.76-3.4-32.14-5.14q.22-2.62.42-5.22c28.53,6,89.4,14.62,159.47-1.07,61.21-13.71,98.71-4.89,131.81,2.89,21.57,5.08,42,9.87,67.2,8.55,27.3-1.44,50.35-17,74.74-33.52,31.17-21.08,66.23-44.78,118.67-45.76C1102.7,1081.82,1103.09,1083.56,1103.47,1085.31Z"/><path class="cls-14" d="M1011.17,1244.17c-6.78-6.12-10.9-5.82-13.51-3.21s-2.7,6.56,4.07,12.69c12.35,11.16,23,11.81,23,11.81S1023.7,1255.49,1011.17,1244.17Z"/><path class="cls-14" d="M1005.93,1146.61h0a.71.71,0,0,0-1.08.07,357.92,357.92,0,0,1-42.35,45.77c-.48.45-1,.89-1.46,1.32a383.51,383.51,0,0,1-30.39,24.68q-3.58,2.63-7.3,5.21l1,1.37q3.64-2.54,7.17-5.13a376,376,0,0,0,55.51-49.45c.47-.5.93-1,1.39-1.52,6.43-7.08,12.27-14.09,17.57-20.93A1,1,0,0,0,1005.93,1146.61Z"/><path class="cls-14" d="M988.31,1168.53l-1.71.6c20.82,58.34-15.94,116.36-16.32,116.94l1.52.86C972.18,1286.35,1009.4,1227.64,988.31,1168.53Z"/><path class="cls-14" d="M955,1190.32a67.18,67.18,0,0,0-33.49,2.17l.61,1.6c.2-.08,20.18-7.44,40.27.17l.71-1.6A53.38,53.38,0,0,0,955,1190.32Z"/><path class="cls-14" d="M919.76,1232.77c11.3-6.1,13.25-10.41,11.5-13.49s-6.53-3.76-17.83,2.34c-20.6,11.11-27.39,22.05-27.39,22.05S898.86,1244,919.76,1232.77Z"/><path class="cls-14" d="M924.75,1198.88c12.6-2.62,15.79-6.21,15.12-9.68s-5-5.5-17.56-2.88c-22.94,4.77-32.81,13.36-32.81,13.36S901.48,1203.73,924.75,1198.88Z"/><path class="cls-14" d="M965.87,1220.71c4.34-8.19,3-11.86-.36-13.37s-7.29-.32-11.63,7.88c-7.91,14.92-5.74,24.88-5.74,24.88S957.84,1235.86,965.87,1220.71Z"/><path class="cls-14" d="M973.71,1294.49c-7.51,14-15.07,21.51-19.07,24.84a26.25,26.25,0,0,1-2.89,2.16,21.55,21.55,0,0,1,.08-2.73c.37-4.7,2.11-15.27,9.93-29.83,5.76-10.73,10.11-12.94,13.39-11.64l.26.12a4.48,4.48,0,0,1,1.23.82C978.84,1280.32,978.8,1285,973.71,1294.49Z"/><path class="cls-14" d="M796.82,1014.21q-4.61,5.06-9,10.08a577.49,577.49,0,0,0-36.39,46.39c-.59.8-1.15,1.61-1.71,2.42q-10.93,15.72-20.11,31a1.26,1.26,0,0,1-1.39.58h0a1.31,1.31,0,0,1-.82-2,569.42,569.42,0,0,1,58.6-80.25q4.32-5,8.82-9.93Z"/><path class="cls-14" d="M761.5,1073.72c27.22-.54,48.2-14.22,48.44-14.38l-1.43-2.13c-.26.18-27.15,17.66-59.17,13.19l-.52,2.59A79.76,79.76,0,0,0,761.5,1073.72Z"/><path class="cls-14" d="M799.05,999.64c-14.56,12.73-16,19.71-12.39,23.64s10.84,3.34,25.4-9.39c26.53-23.19,32.85-41.53,32.85-41.53S826,976.11,799.05,999.64Z"/><path class="cls-14" d="M803,1051.06c-17.62,8-21.11,14.39-19,19.26s9.13,6.42,26.74-1.64c32.09-14.67,43.7-30.58,43.7-30.58S835.57,1036.17,803,1051.06Z"/><path class="cls-14" d="M735.38,1032.74c-3.65,13.48-.38,18.4,5,19.52s10.8-2,14.45-15.46c6.64-24.55.13-38.45.13-38.45S742.11,1007.82,735.38,1032.74Z"/><path class="cls-14" d="M711.44,1212.85q-2.67,4.19-5.17,8.34A418.76,418.76,0,0,0,686,1259c-.32.64-.62,1.29-.92,2q-5.88,12.61-10.54,24.69a.92.92,0,0,1-.92.59h0a1,1,0,0,1-.83-1.29,416.38,416.38,0,0,1,32-64.78q2.47-4.09,5.08-8.21Z"/><path class="cls-14" d="M693.56,1259.85a73.56,73.56,0,0,0,32.86-16.42l-1.29-1.34c-.17.16-17.23,16.06-40.68,16.93l-.05,1.91A58.41,58.41,0,0,0,693.56,1259.85Z"/><path class="cls-14" d="M711.23,1202.15c-8.84,10.94-9,16.11-5.93,18.46s8.16,1,17-9.93c16.1-19.93,18.35-33.83,18.35-33.83S727.56,1181.92,711.23,1202.15Z"/><path class="cls-14" d="M720.44,1238.39c-11.6,8-13.31,13-11.17,16.17s7.32,3.43,18.92-4.56c21.13-14.55,27.46-27.39,27.46-27.39S741.87,1223.62,720.44,1238.39Z"/><path class="cls-14" d="M669.79,1233.87c-.93,10.1,2,13.2,6,13.32s7.48-2.78,8.41-12.88c1.71-18.38-4.67-27.49-4.67-27.49S671.52,1215.22,669.79,1233.87Z"/><path class="cls-14" d="M673.49,1022.2c-10.72-8.63-16.9-7.83-20.59-3.67s-3.5,10.09,7.22,18.72C679.65,1053,695.77,1053,695.77,1053S693.3,1038.15,673.49,1022.2Z"/><path class="cls-14" d="M814.08,1237.28c-10.72-8.63-16.9-7.82-20.59-3.67s-3.49,10.1,7.23,18.73c19.52,15.72,35.65,15.79,35.65,15.79S833.9,1253.23,814.08,1237.28Z"/><path class="cls-14" d="M909.08,1100.86c13.72-.67,17.82-5.39,17.83-11s-4-9.88-17.77-9.21c-25,1.23-37.1,11.91-37.1,11.91S883.72,1102.11,909.08,1100.86Z"/><path class="cls-14" d="M945.73,989.68c-12.59-5.52-18.35-3.13-20.83,1.85s-.75,10.66,11.84,16.19c22.93,10.07,38.51,5.92,38.51,5.92S969,999.9,945.73,989.68Z"/><path class="cls-14" d="M666.12,1120.35a6.7,6.7,0,1,1,7.2,6.2A6.72,6.72,0,0,1,666.12,1120.35Z"/><path class="cls-14" d="M571.74,1039.19a6.71,6.71,0,1,1,7.2,6.19A6.72,6.72,0,0,1,571.74,1039.19Z"/><path class="cls-14" d="M866.61,1016.42a6.71,6.71,0,1,1,7.2,6.19A6.71,6.71,0,0,1,866.61,1016.42Z"/><path class="cls-14" d="M807.61,1116.18a6.71,6.71,0,1,1,7.2,6.19A6.71,6.71,0,0,1,807.61,1116.18Z"/><path class="cls-14" d="M798.39,1195.49a6.7,6.7,0,1,1,7.2,6.19A6.72,6.72,0,0,1,798.39,1195.49Z"/><path class="cls-14" d="M1033.27,1313.84a6.71,6.71,0,1,1,7.2,6.19A6.72,6.72,0,0,1,1033.27,1313.84Z"/><path class="cls-14" d="M1021.54,1187.75a6.7,6.7,0,1,1,7.2,6.19A6.72,6.72,0,0,1,1021.54,1187.75Z"/><path class="cls-14" d="M752.81,1296.68a6.7,6.7,0,1,1,7.2,6.2A6.72,6.72,0,0,1,752.81,1296.68Z"/><path class="cls-6" d="M1263.82,273.57a116.16,116.16,0,1,1-116.15-116.15A115.64,115.64,0,0,1,1263.82,273.57Z"/><g class="cls-5"><path class="cls-14" d="M1235.54,349.53a116.13,116.13,0,0,1-176.06-.36c23.63-11.14,54.23-17.84,87.66-17.84C1180.92,331.33,1211.81,338.18,1235.54,349.53Z"/></g><ellipse class="cls-15" cx="1147.66" cy="285.42" rx="44.56" ry="75.12"/><circle class="cls-14" cx="1147.66" cy="267.85" r="75.12" transform="translate(699.44 1357.79) rotate(-80.78)"/><path class="cls-15" d="M1108.84,231.92h77.65a20.17,20.17,0,0,1,20.17,20.17v10.16a41.53,41.53,0,0,1-41.53,41.53h-32a44.51,44.51,0,0,1-44.51-44.51v-7.18a20.17,20.17,0,0,1,20.17-20.17Z"/><circle class="cls-14" cx="1123.59" cy="254.8" r="6.35"/><path class="cls-14" d="M1165.38,254.8a6.35,6.35,0,1,1,6.35,6.35A6.35,6.35,0,0,1,1165.38,254.8Z"/><path class="cls-15" d="M1070.89,241.4h0a2,2,0,0,1-2-2V208.48a2,2,0,0,1,2-2h0a2,2,0,0,1,2,2v30.93A2,2,0,0,1,1070.89,241.4Z"/><path class="cls-15" d="M1226.05,241.4h0a2,2,0,0,1-2-2V208.48a2,2,0,0,1,2-2h0a2,2,0,0,1,2,2v30.93A2,2,0,0,1,1226.05,241.4Z"/><path class="cls-14" d="M1121.51,279.2s25.42,25.11,50.22,0Z"/><path class="cls-14" d="M1070.89,289.36h0a9.91,9.91,0,0,1-9.88-9.87v-43a9.91,9.91,0,0,1,9.88-9.87h0a9.9,9.9,0,0,1,9.87,9.87v43A9.9,9.9,0,0,1,1070.89,289.36Z"/><path class="cls-7" d="M1147.37,218.46c-28.51,0-47.89-7.56-48.18-7.68l.39-1c.43.15,43.7,17,96.19,0l.33,1A157.3,157.3,0,0,1,1147.37,218.46Z"/><path class="cls-7" d="M1074.83,288.33c-3.61-29.79,5.35-51.84,5.44-52.07l1,.41c-.09.22-9,22-5.37,51.53Z"/><path class="cls-14" d="M1226.05,289.36h0a9.9,9.9,0,0,1-9.87-9.87v-43a9.9,9.9,0,0,1,9.87-9.87h0a9.9,9.9,0,0,1,9.88,9.87v43A9.9,9.9,0,0,1,1226.05,289.36Z"/><path class="cls-7" d="M1220.49,288.33l-1-.13c2.69-21.9-3.71-51.32-3.77-51.62l1-.23C1216.76,236.65,1223.2,266.25,1220.49,288.33Z"/><path class="cls-13" d="M1091.08,362.27a3.17,3.17,0,1,1,3.17,3.18A3.17,3.17,0,0,1,1091.08,362.27Z"/><path class="cls-6" d="M1105.35,364.52a3.17,3.17,0,1,1,4.49,0A3.17,3.17,0,0,1,1105.35,364.52Z"/><rect class="cls-14" x="795.24" y="83.33" width="173.91" height="8.33" rx="3.99"/><rect class="cls-14" x="795.24" y="123.15" width="173.91" height="8.33" rx="3.99"/><rect class="cls-14" x="793.62" y="162.98" width="122.87" height="8.33" rx="3.36"/><rect class="cls-14" x="930.53" y="162.98" width="122.87" height="8.33" rx="3.36"/><rect class="cls-16" x="310.75" y="293.06" width="440.89" height="239.59" rx="27.8" transform="translate(1062.4 825.72) rotate(180)"/><polygon class="cls-16" points="664.25 620.06 644 509.18 559.44 514.37 664.25 620.06"/><path class="cls-13" d="M221.2,324.79a101.12,101.12,0,0,0,1.44,17.08c.18,1.06.38,2.09.6,3.12a99.66,99.66,0,0,0,10.7,28.81q1.29,2.32,2.72,4.57a3.87,3.87,0,0,0,.21.34,94.38,94.38,0,0,0,5.55,7.87c.42.54.86,1.09,1.29,1.62a100.59,100.59,0,0,0,139.46,16.27q3.6-2.78,6.94-5.87a99.92,99.92,0,0,0,10-10.69c.25-.3.49-.61.73-.92a100.58,100.58,0,1,0-179.62-62.2Z"/><path class="cls-15" d="M223.24,345a99.66,99.66,0,0,0,10.7,28.81q1.29,2.32,2.72,4.57a3.87,3.87,0,0,0,.21.34,94.38,94.38,0,0,0,5.55,7.87c.42.54.86,1.09,1.29,1.62a100.75,100.75,0,0,0,19.89,18.63c37.58-7.4,100.21-22.22,104-28.06a37.2,37.2,0,0,0,3.18-6.5,41.1,41.1,0,0,0,2.09-7.13c1.42-7.32.49-14.69-6.92-16.28-18.18-3.87-4.24-15.85-5.24-24.65v0c-.25-2.28-1.5-4.31-4.54-6-4.44-2.4-11.22-6.17-18.56-10.29l-1.44-.8c-.6-.32-1.18-.66-1.76-1h0c-.83-.46-1.7-.93-2.54-1.43-2.51-1.39-5-2.82-7.5-4.22h0c-2.6-1.45-5.12-2.89-7.52-4.24l-.32-.18c-1.29-.72-2.54-1.43-3.72-2.11l-2.91-1.64-1.63-.93c-.72-.41-1.4-.78-2-1.16-1.7-.94-3.09-1.75-4.13-2.33-.33-.2-.63-.36-.88-.5v0l-1.08-.6v0h0v0a8,8,0,0,1,0,.94h0a21.8,21.8,0,0,1-1.83,8.36l0,.08v0c-2.49,5.75-8.3,12.45-21.71,14.95-10.63,2-15.89,5.66-18.05,9.82v0s0,0,0,0c-2.22,4.3-1.1,9.09.83,13.07a.06.06,0,0,0,0,0,29.61,29.61,0,0,0,2.07,3.57C265.2,343.49,246.33,336.17,223.24,345Z"/><path class="cls-17" d="M242.42,386.58c.42.54.86,1.09,1.29,1.62a100.59,100.59,0,0,0,139.46,16.27q3.6-2.78,6.94-5.87c-3.28-14.17-10.49-21.73-19.36-26.33s-19.58-6.32-29.57-8.71c-1.34-.31-2.67-.64-4-1-14.41-3.92-26.61-3.65-36.66-1.31h0A62.8,62.8,0,0,0,264,385.42C259,392.79,250.06,387.12,242.42,386.58Z"/><path class="cls-18" d="M298.57,358.54c-26.05,1.64-46.3,9.51-61.91,19.83a3.87,3.87,0,0,0,.21.34,94.38,94.38,0,0,0,5.55,7.87c.42.54.86,1.09,1.29,1.62a100.59,100.59,0,0,0,139.46,16.27q3.6-2.78,6.94-5.87a99.92,99.92,0,0,0,10-10.69c.25-.3.49-.61.73-.92a64.54,64.54,0,0,0-28-21.85c-9.56-4-21.2-6.64-35.4-7.16h0a156.76,156.76,0,0,0-18.9.42c-7.56.59-12.32-.32-19.71.12l-.14,0Z"/><path class="cls-9" d="M298.57,358.54c6.84,11,25.91,20.27,37.68,16.52,10-3.18,3.09-16.57,3.09-16.57-4.53-.81-6.65-3.5-6.33-8.08l.41-5.64.21-2.79.64-8.93.57-8,2.37-32.88-13.65,31.73-2.33,5.39-8,18.6a17.89,17.89,0,0,1-14.56,10.65Z"/><path class="cls-19" d="M321.23,329.28s4,10.44,12.4,12.7l.64-8.93C329.08,331.16,321.23,329.28,321.23,329.28Z"/><path class="cls-15" d="M300.05,286.75s1.27,5.4-1.83,16.45c-4.54,16.19,13.95,22.94,18.69,18.32.58-.57-.19-28.09-.19-28.09l-5.91-3.51Z"/><ellipse class="cls-9" cx="338.71" cy="297.42" rx="30.89" ry="38.11"/><path class="cls-15" d="M350.94,268.16c-.86,1.17,4,20.78-32.32,25.46s-14.5-39.38,12.3-40.38c38.7-1.44,44.33,24.58,40.62,33.95S350.94,268.16,350.94,268.16Z"/><path class="cls-15" d="M322.63,287.38S307.78,303,312.93,319c0,0-8.61-9.41-8.8-12.92s2.1-16.19,2.1-16.19Z"/><path class="cls-9" d="M312,303.17c3.49,3.34,8.39,3.68,10.92.76s1.76-8-1.74-11.33-8.39-3.69-10.93-.77S308.45,299.83,312,303.17Z"/><path class="cls-20" d="M341.69,297.79a.7.7,0,0,0,.47-.42.69.69,0,0,0-.39-.91,7.59,7.59,0,0,0-9.09,2,.71.71,0,0,0,0,1,.77.77,0,0,0,1,0,12,12,0,0,1,7.55-1.69A.67.67,0,0,0,341.69,297.79Z"/><path class="cls-20" d="M334.3,305.26c-.05,1.68.89,3.07,2.11,3.11s2.24-1.29,2.29-3-.89-3.07-2.1-3.1S334.35,303.58,334.3,305.26Z"/><path class="cls-20" d="M366.78,301.45a.68.68,0,0,0,.59-.21.71.71,0,0,0,0-1,7.62,7.62,0,0,0-9.19-1.59.71.71,0,0,0-.35.93.77.77,0,0,0,.93.35,12,12,0,0,1,7.62,1.32A.74.74,0,0,0,366.78,301.45Z"/><path class="cls-20" d="M356.52,305.32c-.69,1.53-.35,3.17.76,3.67s2.57-.34,3.26-1.87.34-3.17-.76-3.67S357.21,303.79,356.52,305.32Z"/><path class="cls-15" d="M260.1,334.91l.88-1.75c-1.13-.76-4-9.26-1.83-16.27,1.9-6.22,7-9.38,15.06-9.4,24-.06,27.88-19.73,27.92-19.93l-1.93-.36c-.14.75-3.66,18.27-26,18.33-11.92,0-16,6.5-17.24,11.94C255.2,324.94,258,333.87,260.1,334.91Z"/><path class="cls-21" d="M354.61,320.34s-2.88,6.48-8.95,6.5c-7.48,0-9-7.79-9-7.79S345.84,322.11,354.61,320.34Z"/><rect class="cls-14" x="444.14" y="372.17" width="122.87" height="8.33" rx="3.36"/><rect class="cls-14" x="581.05" y="372.17" width="122.87" height="8.33" rx="3.36"/><path class="cls-14" d="M699.75,422H449.06a4.18,4.18,0,0,1-4.16-4.17h0a4.17,4.17,0,0,1,4.16-4.16H699.75a4.17,4.17,0,0,1,4.16,4.16h0A4.18,4.18,0,0,1,699.75,422Z"/><rect class="cls-14" x="414.97" y="455.11" width="152.03" height="8.33" rx="3.73"/><rect class="cls-14" x="581.05" y="455.11" width="122.87" height="8.33" rx="3.36"/><rect class="cls-13" x="717.41" y="562.7" width="158.81" height="58.47" rx="12.67" transform="translate(-64.18 97.98) rotate(-6.76)"/><rect class="cls-16" x="587.73" y="673.37" width="158.81" height="58.47" rx="12.67" transform="translate(-78.12 83.48) rotate(-6.76)"/><path class="cls-15" d="M553.66,225.29a15,15,0,0,1,16.52-2.5c2.12,1,4-2.18,1.84-3.15a18.9,18.9,0,0,0-20.94,3.07c-1.76,1.55.83,4.12,2.58,2.58Z"/><path class="cls-15" d="M546,218.73c6.25-9.39,22.13-11.95,31.72-6.17,2,1.22,3.85-1.93,1.84-3.14-11.37-6.86-29.34-3.6-36.71,7.47-1.3,2,1.85,3.79,3.15,1.84Z"/><path class="cls-15" d="M538.35,211.06c8.09-14.32,27.08-16.57,41.28-10.59,2.16.91,3.1-2.61,1-3.51-15.74-6.63-36.55-3.41-45.4,12.26-1.15,2.05,2,3.88,3.15,1.84Z"/><path class="cls-15" d="M559.77,229.74a3.4,3.4,0,1,1,3.4,3.4A3.4,3.4,0,0,1,559.77,229.74Z"/></g></g></svg>